<mxfile host="app.diagrams.net" modified="2023-05-29T17:04:24.276Z" agent="Mozilla/5.0 (Windows NT 10.0; Win64; x64) AppleWebKit/537.36 (KHTML, like Gecko) Chrome/113.0.0.0 Safari/537.36" etag="9dxPZWRfR0QHqcyFq-tp" version="21.3.5" type="github">
  <diagram name="Page-1" id="3kuJz_fL41QNzQ-6PzGU">
    <mxGraphModel dx="472" dy="746" grid="1" gridSize="10" guides="1" tooltips="1" connect="1" arrows="1" fold="1" page="1" pageScale="1" pageWidth="827" pageHeight="1169" math="0" shadow="0">
      <root>
        <mxCell id="0" />
        <mxCell id="1" parent="0" />
        <mxCell id="MvQEqgnAi_OcX9ohqgdH-9" style="edgeStyle=orthogonalEdgeStyle;rounded=0;orthogonalLoop=1;jettySize=auto;html=1;exitX=1;exitY=0.5;exitDx=0;exitDy=0;exitPerimeter=0;entryX=0;entryY=0.5;entryDx=0;entryDy=0;entryPerimeter=0;" edge="1" parent="1" source="MvQEqgnAi_OcX9ohqgdH-1" target="MvQEqgnAi_OcX9ohqgdH-8">
          <mxGeometry relative="1" as="geometry" />
        </mxCell>
        <mxCell id="MvQEqgnAi_OcX9ohqgdH-1" value="Customer Submit" style="points=[[0.25,0,0],[0.5,0,0],[0.75,0,0],[1,0.25,0],[1,0.5,0],[1,0.75,0],[0.75,1,0],[0.5,1,0],[0.25,1,0],[0,0.75,0],[0,0.5,0],[0,0.25,0]];shape=mxgraph.bpmn.task;whiteSpace=wrap;rectStyle=rounded;size=10;html=1;container=1;expand=0;collapsible=0;taskMarker=abstract;" vertex="1" parent="1">
          <mxGeometry x="230" y="270" width="120" height="80" as="geometry" />
        </mxCell>
        <mxCell id="MvQEqgnAi_OcX9ohqgdH-5" style="edgeStyle=orthogonalEdgeStyle;rounded=0;orthogonalLoop=1;jettySize=auto;html=1;" edge="1" parent="1" source="MvQEqgnAi_OcX9ohqgdH-3" target="MvQEqgnAi_OcX9ohqgdH-1">
          <mxGeometry relative="1" as="geometry" />
        </mxCell>
        <mxCell id="MvQEqgnAi_OcX9ohqgdH-3" value="" style="points=[[0.145,0.145,0],[0.5,0,0],[0.855,0.145,0],[1,0.5,0],[0.855,0.855,0],[0.5,1,0],[0.145,0.855,0],[0,0.5,0]];shape=mxgraph.bpmn.event;html=1;verticalLabelPosition=bottom;labelBackgroundColor=#ffffff;verticalAlign=top;align=center;perimeter=ellipsePerimeter;outlineConnect=0;aspect=fixed;outline=standard;symbol=general;" vertex="1" parent="1">
          <mxGeometry x="80" y="285" width="50" height="50" as="geometry" />
        </mxCell>
        <mxCell id="MvQEqgnAi_OcX9ohqgdH-7" style="edgeStyle=orthogonalEdgeStyle;rounded=0;orthogonalLoop=1;jettySize=auto;html=1;entryX=0.25;entryY=0;entryDx=0;entryDy=0;entryPerimeter=0;" edge="1" parent="1" source="MvQEqgnAi_OcX9ohqgdH-6" target="MvQEqgnAi_OcX9ohqgdH-1">
          <mxGeometry relative="1" as="geometry" />
        </mxCell>
        <mxCell id="MvQEqgnAi_OcX9ohqgdH-19" style="edgeStyle=orthogonalEdgeStyle;rounded=0;orthogonalLoop=1;jettySize=auto;html=1;entryX=0.25;entryY=0;entryDx=0;entryDy=0;entryPerimeter=0;dashed=1;" edge="1" parent="1" source="MvQEqgnAi_OcX9ohqgdH-6" target="MvQEqgnAi_OcX9ohqgdH-10">
          <mxGeometry relative="1" as="geometry">
            <Array as="points">
              <mxPoint x="260" y="130" />
              <mxPoint x="520" y="130" />
            </Array>
          </mxGeometry>
        </mxCell>
        <mxCell id="MvQEqgnAi_OcX9ohqgdH-20" style="edgeStyle=orthogonalEdgeStyle;rounded=0;orthogonalLoop=1;jettySize=auto;html=1;entryX=0.5;entryY=0;entryDx=0;entryDy=0;entryPerimeter=0;" edge="1" parent="1" source="MvQEqgnAi_OcX9ohqgdH-6" target="MvQEqgnAi_OcX9ohqgdH-12">
          <mxGeometry relative="1" as="geometry">
            <Array as="points">
              <mxPoint x="260" y="250" />
              <mxPoint x="550" y="250" />
            </Array>
          </mxGeometry>
        </mxCell>
        <mxCell id="MvQEqgnAi_OcX9ohqgdH-6" value="Data claim" style="shape=mxgraph.bpmn.data;labelPosition=center;verticalLabelPosition=bottom;align=center;verticalAlign=top;size=15;html=1;" vertex="1" parent="1">
          <mxGeometry x="240" y="140" width="40" height="60" as="geometry" />
        </mxCell>
        <mxCell id="MvQEqgnAi_OcX9ohqgdH-13" style="edgeStyle=orthogonalEdgeStyle;rounded=0;orthogonalLoop=1;jettySize=auto;html=1;entryX=0.008;entryY=0.625;entryDx=0;entryDy=0;entryPerimeter=0;exitX=0.5;exitY=1;exitDx=0;exitDy=0;exitPerimeter=0;" edge="1" parent="1" source="MvQEqgnAi_OcX9ohqgdH-8" target="MvQEqgnAi_OcX9ohqgdH-12">
          <mxGeometry relative="1" as="geometry" />
        </mxCell>
        <mxCell id="MvQEqgnAi_OcX9ohqgdH-16" value="Document Complete" style="edgeLabel;html=1;align=center;verticalAlign=middle;resizable=0;points=[];" vertex="1" connectable="0" parent="MvQEqgnAi_OcX9ohqgdH-13">
          <mxGeometry x="0.4471" y="-1" relative="1" as="geometry">
            <mxPoint x="-24" y="9" as="offset" />
          </mxGeometry>
        </mxCell>
        <mxCell id="MvQEqgnAi_OcX9ohqgdH-14" style="edgeStyle=orthogonalEdgeStyle;rounded=0;orthogonalLoop=1;jettySize=auto;html=1;exitX=0.5;exitY=0;exitDx=0;exitDy=0;exitPerimeter=0;entryX=0;entryY=0.4;entryDx=0;entryDy=0;entryPerimeter=0;" edge="1" parent="1" source="MvQEqgnAi_OcX9ohqgdH-8" target="MvQEqgnAi_OcX9ohqgdH-10">
          <mxGeometry relative="1" as="geometry" />
        </mxCell>
        <mxCell id="MvQEqgnAi_OcX9ohqgdH-15" value="documents not complete" style="edgeLabel;html=1;align=center;verticalAlign=middle;resizable=0;points=[];" vertex="1" connectable="0" parent="MvQEqgnAi_OcX9ohqgdH-14">
          <mxGeometry x="0.4022" y="2" relative="1" as="geometry">
            <mxPoint x="-23" y="-10" as="offset" />
          </mxGeometry>
        </mxCell>
        <mxCell id="MvQEqgnAi_OcX9ohqgdH-8" value="" style="points=[[0.25,0.25,0],[0.5,0,0],[0.75,0.25,0],[1,0.5,0],[0.75,0.75,0],[0.5,1,0],[0.25,0.75,0],[0,0.5,0]];shape=mxgraph.bpmn.gateway2;html=1;verticalLabelPosition=bottom;labelBackgroundColor=#ffffff;verticalAlign=top;align=center;perimeter=rhombusPerimeter;outlineConnect=0;outline=none;symbol=none;gwType=exclusive;" vertex="1" parent="1">
          <mxGeometry x="389" y="285" width="50" height="50" as="geometry" />
        </mxCell>
        <mxCell id="MvQEqgnAi_OcX9ohqgdH-18" style="edgeStyle=orthogonalEdgeStyle;rounded=0;orthogonalLoop=1;jettySize=auto;html=1;entryX=0;entryY=0.5;entryDx=0;entryDy=0;entryPerimeter=0;" edge="1" parent="1" source="MvQEqgnAi_OcX9ohqgdH-10" target="MvQEqgnAi_OcX9ohqgdH-17">
          <mxGeometry relative="1" as="geometry" />
        </mxCell>
        <mxCell id="MvQEqgnAi_OcX9ohqgdH-10" value="Customer Submit" style="points=[[0.25,0,0],[0.5,0,0],[0.75,0,0],[1,0.25,0],[1,0.5,0],[1,0.75,0],[0.75,1,0],[0.5,1,0],[0.25,1,0],[0,0.75,0],[0,0.5,0],[0,0.25,0]];shape=mxgraph.bpmn.task;whiteSpace=wrap;rectStyle=rounded;size=10;html=1;container=1;expand=0;collapsible=0;taskMarker=abstract;" vertex="1" parent="1">
          <mxGeometry x="490" y="150" width="120" height="80" as="geometry" />
        </mxCell>
        <mxCell id="MvQEqgnAi_OcX9ohqgdH-12" value="Customer Submit" style="points=[[0.25,0,0],[0.5,0,0],[0.75,0,0],[1,0.25,0],[1,0.5,0],[1,0.75,0],[0.75,1,0],[0.5,1,0],[0.25,1,0],[0,0.75,0],[0,0.5,0],[0,0.25,0]];shape=mxgraph.bpmn.task;whiteSpace=wrap;rectStyle=rounded;size=10;html=1;container=1;expand=0;collapsible=0;taskMarker=abstract;" vertex="1" parent="1">
          <mxGeometry x="490" y="400" width="120" height="80" as="geometry" />
        </mxCell>
        <mxCell id="MvQEqgnAi_OcX9ohqgdH-17" value="" style="points=[[0.145,0.145,0],[0.5,0,0],[0.855,0.145,0],[1,0.5,0],[0.855,0.855,0],[0.5,1,0],[0.145,0.855,0],[0,0.5,0]];shape=mxgraph.bpmn.event;html=1;verticalLabelPosition=bottom;labelBackgroundColor=#ffffff;verticalAlign=top;align=center;perimeter=ellipsePerimeter;outlineConnect=0;aspect=fixed;outline=end;symbol=terminate2;" vertex="1" parent="1">
          <mxGeometry x="690" y="165" width="50" height="50" as="geometry" />
        </mxCell>
      </root>
    </mxGraphModel>
  </diagram>
</mxfile>
